# xmcd
#
# Track frame offsets:
#	150
#	17071
#	37359
#	53488
#	69949
#	89978
#	108096
#	124439
#	142418
#	157256
#	177496
#	191208
#	209084
#	228515
#	245194
#	261401
#	284467
#	300293
#	318647
#	340516
#
# Disc length: 4776 seconds
#
# Revision: 0
# Processed by: cddbd v1.5.2PL0 Copyright (c) Steve Scherf et al.
# Submitted via: EasyCDDAExtractor 2010.6.0.0
#
DISCID=4712a614
DTITLE=Various Artist - Testament Van De Eighties cd 9
DYEAR=2011
DGENRE=Pop
TTITLE0=Tiffany - I Think We´re Alone Now
TTITLE1=Wet Wet Wet - Angel Eyes
TTITLE2=Krush - House Arrest
TTITLE3=Taylor Dayne - Tell It To My Heart
TTITLE4=Sting - An Englishman In New York
TTITLE5=Eddy Grant - Gimme Hope Jo´Anna
TTITLE6=Freiheit - Play It Cool
TTITLE7=Mory Kante - Yeke Yeke
TTITLE8=Salt ´n Pepa - Push It
TTITLE9=Toto - Pamela
TTITLE10=Inxs - Never Tear Us Apart
TTITLE11=Sam Brown - Stop
TTITLE12=Joe Jackson - Is She Really Going Out With Him?
TTITLE13=Eric Clapton - Wonderful Tonight
TTITLE14=Yazz - The Only Way Is Up
TTITLE15=Tsjechov - Vanmorgen Vloog Ze Nog
TTITLE16=Tom Jones and The Art Of Noise - Kiss
TTITLE17=Kim Wilde - Never Trust A Stranger
TTITLE18=Tanita Tikaram - Twist In My Sobriety
TTITLE19=Gloria Estefan and The Miami Sound Machine - Can´t Stay Away From You
EXTD=
EXTT0=
EXTT1=
EXTT2=
EXTT3=
EXTT4=
EXTT5=
EXTT6=
EXTT7=
EXTT8=
EXTT9=
EXTT10=
EXTT11=
EXTT12=
EXTT13=
EXTT14=
EXTT15=
EXTT16=
EXTT17=
EXTT18=
EXTT19=
PLAYORDER=
